<?xml version="1.0" encoding="UTF-8" standalone="no"?>
<svg
   xmlns:dc="http://purl.org/dc/elements/1.1/"
   xmlns:cc="http://creativecommons.org/ns#"
   xmlns:rdf="http://www.w3.org/1999/02/22-rdf-syntax-ns#"
   xmlns:svg="http://www.w3.org/2000/svg"
   xmlns="http://www.w3.org/2000/svg"
   viewBox="0 0 353.75 567.5"
   height="567.5"
   width="353.75"
   xml:space="preserve"
   version="1.1"
   id="svg2"><metadata
     id="metadata8"><rdf:RDF><cc:Work
         rdf:about=""><dc:format>image/svg+xml</dc:format><dc:type
           rdf:resource="http://purl.org/dc/dcmitype/StillImage" /><dc:title></dc:title></cc:Work></rdf:RDF></metadata><defs
     id="defs6"><clipPath
       id="clipPath16"
       clipPathUnits="userSpaceOnUse"><path
         style="clip-rule:evenodd"
         id="path18"
         d="m 0,0.4 283.4,0 0,453.5 L 0,453.9 0,0.4 Z" /></clipPath><clipPath
       id="clipPath422"
       clipPathUnits="userSpaceOnUse"><path
         id="path424"
         d="m -114,226 511,0 0,0.1 -511,0 0,-0.1 z" /></clipPath></defs><g
     transform="matrix(1.25,0,0,-1.25,0,567.5)"
     id="g10"><path
       id="path22"
       style="fill:#ffff66;fill-opacity:1;fill-rule:evenodd;stroke:none"
       d="m 35.4,418.6 -28.3,0 0,28.3 56.7,0 0,-28.3 -28.4,0 z" /><g
       id="g24"><path
         id="path26"
         style="fill:none;stroke:#000000;stroke-width:0.28299001;stroke-linecap:butt;stroke-linejoin:round;stroke-miterlimit:10;stroke-dasharray:none;stroke-opacity:1"
         d="m 35.4,418.6 -28.3,0 0,28.3 56.7,0 0,-28.3 -28.4,0 z" /></g><g
       id="g28"><text
         id="text30"
         style="font-variant:normal;font-weight:normal;font-size:18px;font-family:'Liberation Sans';-inkscape-font-specification:LiberationSans;writing-mode:lr-tb;fill:#000000;fill-opacity:1;fill-rule:nonzero;stroke:none"
         transform="matrix(1,0,0,-1,13,426.5)"><tspan
           id="tspan32"
           y="0"
           x="0 9.8999996 14.976 24.983999 34.883999">a.hpp</tspan></text>
</g><path
       id="path34"
       style="fill:#ffff66;fill-opacity:1;fill-rule:evenodd;stroke:none"
       d="m 106.3,418.6 -28.3,0 0,28.3 56.6,0 0,-28.3 -28.3,0 z" /><g
       id="g36"><path
         id="path38"
         style="fill:none;stroke:#000000;stroke-width:0.28299001;stroke-linecap:butt;stroke-linejoin:round;stroke-miterlimit:10;stroke-dasharray:none;stroke-opacity:1"
         d="m 106.3,418.6 -28.3,0 0,28.3 56.6,0 0,-28.3 -28.3,0 z" /></g><g
       id="g40"><text
         id="text42"
         style="font-variant:normal;font-weight:normal;font-size:18px;font-family:'Liberation Sans';-inkscape-font-specification:LiberationSans;writing-mode:lr-tb;fill:#000000;fill-opacity:1;fill-rule:nonzero;stroke:none"
         transform="matrix(1,0,0,-1,83.8,426.5)"><tspan
           id="tspan44"
           y="0"
           x="0 10.008 14.994 25.002001 35.009998">b.hpp</tspan></text>
</g><path
       id="path46"
       style="fill:#ffff66;fill-opacity:1;fill-rule:evenodd;stroke:none"
       d="m 177.2,418.6 -28.4,0 0,28.3 56.7,0 0,-28.3 -28.3,0 z" /><g
       id="g48"><path
         id="path50"
         style="fill:none;stroke:#000000;stroke-width:0.28299001;stroke-linecap:butt;stroke-linejoin:round;stroke-miterlimit:10;stroke-dasharray:none;stroke-opacity:1"
         d="m 177.2,418.6 -28.4,0 0,28.3 56.7,0 0,-28.3 -28.3,0 z" /></g><g
       id="g52"><text
         id="text54"
         style="font-variant:normal;font-weight:normal;font-size:18px;font-family:'Liberation Sans';-inkscape-font-specification:LiberationSans;writing-mode:lr-tb;fill:#000000;fill-opacity:1;fill-rule:nonzero;stroke:none"
         transform="matrix(1,0,0,-1,155.2,426.5)"><tspan
           id="tspan56"
           y="0"
           x="0 9 13.986 23.993999 34.001999">c.hpp</tspan></text>
</g><path
       id="path58"
       style="fill:#ffff66;fill-opacity:1;fill-rule:evenodd;stroke:none"
       d="m 248,418.6 -28.3,0 0,28.3 56.7,0 0,-28.3 -28.4,0 z" /><g
       id="g60"><path
         id="path62"
         style="fill:none;stroke:#000000;stroke-width:0.28299001;stroke-linecap:butt;stroke-linejoin:round;stroke-miterlimit:10;stroke-dasharray:none;stroke-opacity:1"
         d="m 248,418.6 -28.3,0 0,28.3 56.7,0 0,-28.3 -28.4,0 z" /></g><g
       id="g64"><text
         id="text66"
         style="font-variant:normal;font-weight:normal;font-size:18px;font-family:'Liberation Sans';-inkscape-font-specification:LiberationSans;writing-mode:lr-tb;fill:#000000;fill-opacity:1;fill-rule:nonzero;stroke:none"
         transform="matrix(1,0,0,-1,225.6,426.5)"><tspan
           id="tspan68"
           y="0"
           x="0 9.8999996 14.976 24.983999 34.883999">d.hpp</tspan></text>
</g><path
       id="path70"
       style="fill:#00ffff;fill-opacity:1;fill-rule:evenodd;stroke:none"
       d="m 70.9,347.7 -28.4,0 0,28.3 56.7,0 0,-28.3 -28.3,0 z" /><g
       id="g72"><path
         id="path74"
         style="fill:none;stroke:#000000;stroke-width:0.28299001;stroke-linecap:butt;stroke-linejoin:round;stroke-miterlimit:10;stroke-dasharray:none;stroke-opacity:1"
         d="m 70.9,347.7 -28.4,0 0,28.3 56.7,0 0,-28.3 -28.3,0 z" /></g><g
       id="g76"><text
         id="text78"
         style="font-variant:normal;font-weight:normal;font-size:18px;font-family:'Liberation Sans';-inkscape-font-specification:LiberationSans;writing-mode:lr-tb;fill:#000000;fill-opacity:1;fill-rule:nonzero;stroke:none"
         transform="matrix(1,0,0,-1,48.9,355.6)"><tspan
           id="tspan80"
           y="0"
           x="0 9.8999996 14.976 23.976 33.984001">a.cpp</tspan></text>
</g><path
       id="path82"
       style="fill:#00ffff;fill-opacity:1;fill-rule:evenodd;stroke:none"
       d="m 141.7,347.7 -28.3,0 0,28.3 56.7,0 0,-28.3 -28.4,0 z" /><g
       id="g84"><path
         id="path86"
         style="fill:none;stroke:#000000;stroke-width:0.28299001;stroke-linecap:butt;stroke-linejoin:round;stroke-miterlimit:10;stroke-dasharray:none;stroke-opacity:1"
         d="m 141.7,347.7 -28.3,0 0,28.3 56.7,0 0,-28.3 -28.4,0 z" /></g><g
       id="g88"><text
         id="text90"
         style="font-variant:normal;font-weight:normal;font-size:18px;font-family:'Liberation Sans';-inkscape-font-specification:LiberationSans;writing-mode:lr-tb;fill:#000000;fill-opacity:1;fill-rule:nonzero;stroke:none"
         transform="matrix(1,0,0,-1,119.8,355.6)"><tspan
           id="tspan92"
           y="0"
           x="0 9.8999996 14.976 23.976 33.875999">b.cpp</tspan></text>
</g><path
       id="path94"
       style="fill:#00ffff;fill-opacity:1;fill-rule:evenodd;stroke:none"
       d="m 212.6,347.7 -28.3,0 0,28.3 56.6,0 0,-28.3 -28.3,0 z" /><g
       id="g96"><path
         id="path98"
         style="fill:none;stroke:#000000;stroke-width:0.28299001;stroke-linecap:butt;stroke-linejoin:round;stroke-miterlimit:10;stroke-dasharray:none;stroke-opacity:1"
         d="m 212.6,347.7 -28.3,0 0,28.3 56.6,0 0,-28.3 -28.3,0 z" /></g><g
       id="g100"><text
         id="text102"
         style="font-variant:normal;font-weight:normal;font-size:18px;font-family:'Liberation Sans';-inkscape-font-specification:LiberationSans;writing-mode:lr-tb;fill:#000000;fill-opacity:1;fill-rule:nonzero;stroke:none"
         transform="matrix(1,0,0,-1,191.1,355.6)"><tspan
           id="tspan104"
           y="0"
           x="0 9 13.986 23.076 32.976002">c.cpp</tspan></text>
</g><g
       id="g106"><path
         id="path108"
         style="fill:none;stroke:#000000;stroke-width:0.28299001;stroke-linecap:butt;stroke-linejoin:round;stroke-miterlimit:10;stroke-dasharray:none;stroke-opacity:1"
         d="M 70.9,376 40.6,412.3" /></g><path
       id="path110"
       style="fill:#000000;fill-opacity:1;fill-rule:evenodd;stroke:none"
       d="m 35.4,418.6 3.3,-8.4 4.4,3.7 -7.7,4.7 z" /><g
       id="g112"><path
         id="path114"
         style="fill:none;stroke:#000000;stroke-width:0.28299001;stroke-linecap:butt;stroke-linejoin:round;stroke-miterlimit:10;stroke-dasharray:none;stroke-opacity:1"
         d="m 70.9,376 30.2,36.3" /></g><path
       id="path116"
       style="fill:#000000;fill-opacity:1;fill-rule:evenodd;stroke:none"
       d="m 106.3,418.6 -7.6,-4.7 4.3,-3.7 3.3,8.4 z" /><g
       id="g118"><path
         id="path120"
         style="fill:none;stroke:#000000;stroke-width:0.28299001;stroke-linecap:butt;stroke-linejoin:round;stroke-miterlimit:10;stroke-dasharray:none;stroke-opacity:1"
         d="m 70.9,376 176.3,40.8" /></g><path
       id="path122"
       style="fill:#000000;fill-opacity:1;fill-rule:evenodd;stroke:none"
       d="m 255.1,418.6 -8.9,0.8 1.3,-5.5 7.6,4.7 z" /><g
       id="g124"><path
         id="path126"
         style="fill:none;stroke:#000000;stroke-width:0.28299001;stroke-linecap:butt;stroke-linejoin:round;stroke-miterlimit:10;stroke-dasharray:none;stroke-opacity:1"
         d="m 141.7,376 -30.2,36.3" /></g><path
       id="path128"
       style="fill:#000000;fill-opacity:1;fill-rule:evenodd;stroke:none"
       d="m 106.3,418.6 3.3,-8.4 4.3,3.7 -7.6,4.7 z" /><g
       id="g130"><path
         id="path132"
         style="fill:none;stroke:#000000;stroke-width:0.28299001;stroke-linecap:butt;stroke-linejoin:round;stroke-miterlimit:10;stroke-dasharray:none;stroke-opacity:1"
         d="m 141.7,376 30.2,36.3" /></g><path
       id="path134"
       style="fill:#000000;fill-opacity:1;fill-rule:evenodd;stroke:none"
       d="m 177.2,418.6 -7.7,-4.7 4.4,-3.7 3.3,8.4 z" /><g
       id="g136"><path
         id="path138"
         style="fill:none;stroke:#000000;stroke-width:0.28299001;stroke-linecap:butt;stroke-linejoin:round;stroke-miterlimit:10;stroke-dasharray:none;stroke-opacity:1"
         d="m 212.6,376 -30.2,36.3" /></g><path
       id="path140"
       style="fill:#000000;fill-opacity:1;fill-rule:evenodd;stroke:none"
       d="m 177.2,418.6 3.2,-8.4 4.4,3.7 -7.6,4.7 z" /><g
       id="g142"><path
         id="path144"
         style="fill:none;stroke:#000000;stroke-width:0.28299001;stroke-linecap:butt;stroke-linejoin:round;stroke-miterlimit:10;stroke-dasharray:none;stroke-opacity:1"
         d="m 212.6,376 -98.8,39.6" /></g><path
       id="path146"
       style="fill:#000000;fill-opacity:1;fill-rule:evenodd;stroke:none"
       d="m 106.3,418.6 6.8,-5.8 2.2,5.2 -9,0.6 z" /><g
       id="g148"><path
         id="path150"
         style="fill:none;stroke:#000000;stroke-width:0.28299001;stroke-linecap:butt;stroke-linejoin:round;stroke-miterlimit:10;stroke-dasharray:none;stroke-opacity:1"
         d="m 212.6,376 36.8,36.8" /></g><path
       id="path152"
       style="fill:#000000;fill-opacity:1;fill-rule:evenodd;stroke:none"
       d="m 255.1,418.6 -8,-4 4,-4.1 4,8.1 z" /><path
       id="path154"
       style="fill:#00ffff;fill-opacity:1;fill-rule:evenodd;stroke:none"
       d="m 70.9,177.6 -28.4,0 0,28.4 56.7,0 0,-28.4 -28.3,0 z" /><g
       id="g156"><path
         id="path158"
         style="fill:none;stroke:#000000;stroke-width:0.28299001;stroke-linecap:butt;stroke-linejoin:round;stroke-miterlimit:10;stroke-dasharray:none;stroke-opacity:1"
         d="m 70.9,177.6 -28.4,0 0,28.4 56.7,0 0,-28.4 -28.3,0 z" /></g><g
       id="g160"><text
         id="text162"
         style="font-variant:normal;font-weight:normal;font-size:18px;font-family:'Liberation Sans';-inkscape-font-specification:LiberationSans;writing-mode:lr-tb;fill:#000000;fill-opacity:1;fill-rule:nonzero;stroke:none"
         transform="matrix(1,0,0,-1,48.9,185.5)"><tspan
           id="tspan164"
           y="0"
           x="0 9.8999996 14.976 23.976 33.984001">a.cpp</tspan></text>
</g><path
       id="path166"
       style="fill:#00ffff;fill-opacity:1;fill-rule:evenodd;stroke:none"
       d="m 141.7,177.6 -28.3,0 0,28.4 56.7,0 0,-28.4 -28.4,0 z" /><g
       id="g168"><path
         id="path170"
         style="fill:none;stroke:#000000;stroke-width:0.28299001;stroke-linecap:butt;stroke-linejoin:round;stroke-miterlimit:10;stroke-dasharray:none;stroke-opacity:1"
         d="m 141.7,177.6 -28.3,0 0,28.4 56.7,0 0,-28.4 -28.4,0 z" /></g><g
       id="g172"><text
         id="text174"
         style="font-variant:normal;font-weight:normal;font-size:18px;font-family:'Liberation Sans';-inkscape-font-specification:LiberationSans;writing-mode:lr-tb;fill:#000000;fill-opacity:1;fill-rule:nonzero;stroke:none"
         transform="matrix(1,0,0,-1,119.8,185.5)"><tspan
           id="tspan176"
           y="0"
           x="0 9.8999996 14.976 23.976 33.875999">b.cpp</tspan></text>
</g><path
       id="path178"
       style="fill:#00ffff;fill-opacity:1;fill-rule:evenodd;stroke:none"
       d="m 212.6,177.6 -28.3,0 0,28.4 56.6,0 0,-28.4 -28.3,0 z" /><g
       id="g180"><path
         id="path182"
         style="fill:none;stroke:#000000;stroke-width:0.28299001;stroke-linecap:butt;stroke-linejoin:round;stroke-miterlimit:10;stroke-dasharray:none;stroke-opacity:1"
         d="m 212.6,177.6 -28.3,0 0,28.4 56.6,0 0,-28.4 -28.3,0 z" /></g><g
       id="g184"><text
         id="text186"
         style="font-variant:normal;font-weight:normal;font-size:18px;font-family:'Liberation Sans';-inkscape-font-specification:LiberationSans;writing-mode:lr-tb;fill:#000000;fill-opacity:1;fill-rule:nonzero;stroke:none"
         transform="matrix(1,0,0,-1,191.1,185.5)"><tspan
           id="tspan188"
           y="0"
           x="0 9 13.986 23.076 32.976002">c.cpp</tspan></text>
</g><path
       id="path190"
       style="fill:#ffff66;fill-opacity:1;fill-rule:evenodd;stroke:none"
       d="m 70.9,206 -28.4,0 0,28.3 56.7,0 0,-28.3 -28.3,0 z" /><g
       id="g192"><path
         id="path194"
         style="fill:none;stroke:#000000;stroke-width:0.28299001;stroke-linecap:butt;stroke-linejoin:round;stroke-miterlimit:10;stroke-dasharray:none;stroke-opacity:1"
         d="m 70.9,206 -28.4,0 0,28.3 56.7,0 0,-28.3 -28.3,0 z" /></g><g
       id="g196"><text
         id="text198"
         style="font-variant:normal;font-weight:normal;font-size:18px;font-family:'Liberation Sans';-inkscape-font-specification:LiberationSans;writing-mode:lr-tb;fill:#000000;fill-opacity:1;fill-rule:nonzero;stroke:none"
         transform="matrix(1,0,0,-1,48.4,213.9)"><tspan
           id="tspan200"
           y="0"
           x="0 10.008 14.994 25.002001 34.902">a.hpp</tspan></text>
</g><path
       id="path202"
       style="fill:#ffff66;fill-opacity:1;fill-rule:evenodd;stroke:none"
       d="m 70.9,234.3 -28.4,0 0,28.4 56.7,0 0,-28.4 -28.3,0 z" /><g
       id="g204"><path
         id="path206"
         style="fill:none;stroke:#000000;stroke-width:0.28299001;stroke-linecap:butt;stroke-linejoin:round;stroke-miterlimit:10;stroke-dasharray:none;stroke-opacity:1"
         d="m 70.9,234.3 -28.4,0 0,28.4 56.7,0 0,-28.4 -28.3,0 z" /></g><g
       id="g208"><text
         id="text210"
         style="font-variant:normal;font-weight:normal;font-size:18px;font-family:'Liberation Sans';-inkscape-font-specification:LiberationSans;writing-mode:lr-tb;fill:#000000;fill-opacity:1;fill-rule:nonzero;stroke:none"
         transform="matrix(1,0,0,-1,48.4,242.2)"><tspan
           id="tspan212"
           y="0"
           x="0 10.008 14.994 25.002001 34.902">b.hpp</tspan></text>
</g><path
       id="path214"
       style="fill:#ffff66;fill-opacity:1;fill-rule:evenodd;stroke:none"
       d="m 141.7,206 -28.3,0 0,28.3 56.7,0 0,-28.3 -28.4,0 z" /><g
       id="g216"><path
         id="path218"
         style="fill:none;stroke:#000000;stroke-width:0.28299001;stroke-linecap:butt;stroke-linejoin:round;stroke-miterlimit:10;stroke-dasharray:none;stroke-opacity:1"
         d="m 141.7,206 -28.3,0 0,28.3 56.7,0 0,-28.3 -28.4,0 z" /></g><g
       id="g220"><text
         id="text222"
         style="font-variant:normal;font-weight:normal;font-size:18px;font-family:'Liberation Sans';-inkscape-font-specification:LiberationSans;writing-mode:lr-tb;fill:#000000;fill-opacity:1;fill-rule:nonzero;stroke:none"
         transform="matrix(1,0,0,-1,119.3,213.9)"><tspan
           id="tspan224"
           y="0"
           x="0 9.8999996 14.976 24.983999 34.883999">b.hpp</tspan></text>
</g><path
       id="path226"
       style="fill:#ffff66;fill-opacity:1;fill-rule:evenodd;stroke:none"
       d="m 212.6,206 -28.3,0 0,28.3 56.6,0 0,-28.3 -28.3,0 z" /><g
       id="g228"><path
         id="path230"
         style="fill:none;stroke:#000000;stroke-width:0.28299001;stroke-linecap:butt;stroke-linejoin:round;stroke-miterlimit:10;stroke-dasharray:none;stroke-opacity:1"
         d="m 212.6,206 -28.3,0 0,28.3 56.6,0 0,-28.3 -28.3,0 z" /></g><g
       id="g232"><text
         id="text234"
         style="font-variant:normal;font-weight:normal;font-size:18px;font-family:'Liberation Sans';-inkscape-font-specification:LiberationSans;writing-mode:lr-tb;fill:#000000;fill-opacity:1;fill-rule:nonzero;stroke:none"
         transform="matrix(1,0,0,-1,190.1,213.9)"><tspan
           id="tspan236"
           y="0"
           x="0 10.008 14.994 25.002001 35.009998">b.hpp</tspan></text>
</g><path
       id="path238"
       style="fill:#ffff66;fill-opacity:1;fill-rule:evenodd;stroke:none"
       d="m 141.7,234.3 -28.3,0 0,28.4 56.7,0 0,-28.4 -28.4,0 z" /><g
       id="g240"><path
         id="path242"
         style="fill:none;stroke:#000000;stroke-width:0.28299001;stroke-linecap:butt;stroke-linejoin:round;stroke-miterlimit:10;stroke-dasharray:none;stroke-opacity:1"
         d="m 141.7,234.3 -28.3,0 0,28.4 56.7,0 0,-28.4 -28.4,0 z" /></g><g
       id="g244"><text
         id="text246"
         style="font-variant:normal;font-weight:normal;font-size:18px;font-family:'Liberation Sans';-inkscape-font-specification:LiberationSans;writing-mode:lr-tb;fill:#000000;fill-opacity:1;fill-rule:nonzero;stroke:none"
         transform="matrix(1,0,0,-1,119.8,242.2)"><tspan
           id="tspan248"
           y="0"
           x="0 9 13.986 23.993999 33.894001">c.hpp</tspan></text>
</g><path
       id="path250"
       style="fill:#ffff66;fill-opacity:1;fill-rule:evenodd;stroke:none"
       d="m 212.6,234.3 -28.3,0 0,28.4 56.6,0 0,-28.4 -28.3,0 z" /><g
       id="g252"><path
         id="path254"
         style="fill:none;stroke:#000000;stroke-width:0.28299001;stroke-linecap:butt;stroke-linejoin:round;stroke-miterlimit:10;stroke-dasharray:none;stroke-opacity:1"
         d="m 212.6,234.3 -28.3,0 0,28.4 56.6,0 0,-28.4 -28.3,0 z" /></g><g
       id="g256"><text
         id="text258"
         style="font-variant:normal;font-weight:normal;font-size:18px;font-family:'Liberation Sans';-inkscape-font-specification:LiberationSans;writing-mode:lr-tb;fill:#000000;fill-opacity:1;fill-rule:nonzero;stroke:none"
         transform="matrix(1,0,0,-1,190.6,242.2)"><tspan
           id="tspan260"
           y="0"
           x="0 9 14.076 23.976 33.984001">c.hpp</tspan></text>
</g><path
       id="path262"
       style="fill:#ffff66;fill-opacity:1;fill-rule:evenodd;stroke:none"
       d="m 70.9,262.7 -28.4,0 0,28.3 56.7,0 0,-28.3 -28.3,0 z" /><g
       id="g264"><path
         id="path266"
         style="fill:none;stroke:#000000;stroke-width:0.28299001;stroke-linecap:butt;stroke-linejoin:round;stroke-miterlimit:10;stroke-dasharray:none;stroke-opacity:1"
         d="m 70.9,262.7 -28.4,0 0,28.3 56.7,0 0,-28.3 -28.3,0 z" /></g><g
       id="g268"><text
         id="text270"
         style="font-variant:normal;font-weight:normal;font-size:18px;font-family:'Liberation Sans';-inkscape-font-specification:LiberationSans;writing-mode:lr-tb;fill:#000000;fill-opacity:1;fill-rule:nonzero;stroke:none"
         transform="matrix(1,0,0,-1,48.4,270.6)"><tspan
           id="tspan272"
           y="0"
           x="0 10.008 14.994 25.002001 34.902">d.hpp</tspan></text>
</g><path
       id="path274"
       style="fill:#ffff66;fill-opacity:1;fill-rule:evenodd;stroke:none"
       d="m 212.6,262.7 -28.3,0 0,28.3 56.6,0 0,-28.3 -28.3,0 z" /><g
       id="g276"><path
         id="path278"
         style="fill:none;stroke:#000000;stroke-width:0.28299001;stroke-linecap:butt;stroke-linejoin:round;stroke-miterlimit:10;stroke-dasharray:none;stroke-opacity:1"
         d="m 212.6,262.7 -28.3,0 0,28.3 56.6,0 0,-28.3 -28.3,0 z" /></g><g
       id="g280"><text
         id="text282"
         style="font-variant:normal;font-weight:normal;font-size:18px;font-family:'Liberation Sans';-inkscape-font-specification:LiberationSans;writing-mode:lr-tb;fill:#000000;fill-opacity:1;fill-rule:nonzero;stroke:none"
         transform="matrix(1,0,0,-1,190.1,270.6)"><tspan
           id="tspan284"
           y="0"
           x="0 10.008 14.994 25.002001 35.009998">d.hpp</tspan></text>
</g><path
       id="path286"
       style="fill:#ff6633;fill-opacity:1;fill-rule:evenodd;stroke:none"
       d="m 70.9,92.6 -28.4,0 0,28.3 56.7,0 0,-28.3 -28.3,0 z" /><g
       id="g288"><path
         id="path290"
         style="fill:none;stroke:#000000;stroke-width:0.28299001;stroke-linecap:butt;stroke-linejoin:round;stroke-miterlimit:10;stroke-dasharray:none;stroke-opacity:1"
         d="m 70.9,92.6 -28.4,0 0,28.3 56.7,0 0,-28.3 -28.3,0 z" /></g><g
       id="g292"><text
         id="text294"
         style="font-variant:normal;font-weight:normal;font-size:18px;font-family:'Liberation Sans';-inkscape-font-specification:LiberationSans;writing-mode:lr-tb;fill:#000000;fill-opacity:1;fill-rule:nonzero;stroke:none"
         transform="matrix(1,0,0,-1,58.4,100.5)"><tspan
           id="tspan296"
           y="0"
           x="0 9.8999996 14.976">a.o</tspan></text>
</g><path
       id="path298"
       style="fill:#ff6633;fill-opacity:1;fill-rule:evenodd;stroke:none"
       d="m 141.7,92.6 -28.3,0 0,28.3 56.7,0 0,-28.3 -28.4,0 z" /><g
       id="g300"><path
         id="path302"
         style="fill:none;stroke:#000000;stroke-width:0.28299001;stroke-linecap:butt;stroke-linejoin:round;stroke-miterlimit:10;stroke-dasharray:none;stroke-opacity:1"
         d="m 141.7,92.6 -28.3,0 0,28.3 56.7,0 0,-28.3 -28.4,0 z" /></g><g
       id="g304"><text
         id="text306"
         style="font-variant:normal;font-weight:normal;font-size:18px;font-family:'Liberation Sans';-inkscape-font-specification:LiberationSans;writing-mode:lr-tb;fill:#000000;fill-opacity:1;fill-rule:nonzero;stroke:none"
         transform="matrix(1,0,0,-1,129.3,100.5)"><tspan
           id="tspan308"
           y="0"
           x="0 9.8999996 14.976">b.o</tspan></text>
</g><path
       id="path310"
       style="fill:#ff6633;fill-opacity:1;fill-rule:evenodd;stroke:none"
       d="m 212.6,92.6 -28.3,0 0,28.3 56.6,0 0,-28.3 -28.3,0 z" /><g
       id="g312"><path
         id="path314"
         style="fill:none;stroke:#000000;stroke-width:0.28299001;stroke-linecap:butt;stroke-linejoin:round;stroke-miterlimit:10;stroke-dasharray:none;stroke-opacity:1"
         d="m 212.6,92.6 -28.3,0 0,28.3 56.6,0 0,-28.3 -28.3,0 z" /></g><g
       id="g316"><text
         id="text318"
         style="font-variant:normal;font-weight:normal;font-size:18px;font-family:'Liberation Sans';-inkscape-font-specification:LiberationSans;writing-mode:lr-tb;fill:#000000;fill-opacity:1;fill-rule:nonzero;stroke:none"
         transform="matrix(1,0,0,-1,200.6,100.5)"><tspan
           id="tspan320"
           y="0"
           x="0 9 13.986">c.o</tspan></text>
</g><path
       id="path322"
       style="fill:#00ff00;fill-opacity:1;fill-rule:evenodd;stroke:none"
       d="m 141.7,7.5 -28.3,0 0,28.4 56.7,0 0,-28.4 -28.4,0 z" /><g
       id="g324"><path
         id="path326"
         style="fill:none;stroke:#000000;stroke-width:0.28299001;stroke-linecap:butt;stroke-linejoin:round;stroke-miterlimit:10;stroke-dasharray:none;stroke-opacity:1"
         d="m 141.7,7.5 -28.3,0 0,28.4 56.7,0 0,-28.4 -28.4,0 z" /></g><g
       id="g328"><text
         id="text330"
         style="font-variant:normal;font-weight:normal;font-size:18px;font-family:'Liberation Sans';-inkscape-font-specification:LiberationSans;writing-mode:lr-tb;fill:#000000;fill-opacity:1;fill-rule:nonzero;stroke:none"
         transform="matrix(1,0,0,-1,119.8,15.5)"><tspan
           id="tspan332"
           y="0"
           x="0 10.008 14.994 25.002001 33.894001">a.exe</tspan></text>
</g><g
       id="g334"><path
         id="path336"
         style="fill:none;stroke:#000000;stroke-width:0.28299001;stroke-linecap:butt;stroke-linejoin:round;stroke-miterlimit:10;stroke-dasharray:none;stroke-opacity:1"
         d="m 141.7,305.2 -134.6,0 0,28.3 269.3,0 0,-28.3 -134.7,0 z" /></g><g
       id="g338"><text
         id="text340"
         style="font-variant:normal;font-weight:normal;font-size:18px;font-family:'Liberation Sans';-inkscape-font-specification:LiberationSans;writing-mode:lr-tb;fill:#000000;fill-opacity:1;fill-rule:nonzero;stroke:none"
         transform="matrix(1,0,0,-1,88.3,313.1)"><tspan
           id="tspan342"
           y="0"
           x="0 11.988 17.982 27.99 37.998001 43.902 53.91 62.91 72.917999 81.917999 90.917999 100.818">Preprocessor</tspan></text>
</g><g
       id="g344"><path
         id="path346"
         style="fill:none;stroke:#000000;stroke-width:0.28299001;stroke-linecap:butt;stroke-linejoin:round;stroke-miterlimit:10;stroke-dasharray:none;stroke-opacity:1"
         d="m 70.9,340.6 0,-34.4" /></g><path
       id="path348"
       style="fill:#000000;fill-opacity:1;fill-rule:evenodd;stroke:none"
       d="m 70.9,298.1 2.8,8.5 -5.7,0 2.9,-8.5 z" /><g
       id="g350"><path
         id="path352"
         style="fill:none;stroke:#000000;stroke-width:0.28299001;stroke-linecap:butt;stroke-linejoin:round;stroke-miterlimit:10;stroke-dasharray:none;stroke-opacity:1"
         d="m 141.7,340.6 0,-62.7" /></g><path
       id="path354"
       style="fill:#000000;fill-opacity:1;fill-rule:evenodd;stroke:none"
       d="m 141.7,269.7 2.9,8.6 -5.7,0 2.8,-8.6 z" /><g
       id="g356"><path
         id="path358"
         style="fill:none;stroke:#000000;stroke-width:0.28299001;stroke-linecap:butt;stroke-linejoin:round;stroke-miterlimit:10;stroke-dasharray:none;stroke-opacity:1"
         d="m 212.6,340.6 0,-34.4" /></g><path
       id="path360"
       style="fill:#000000;fill-opacity:1;fill-rule:evenodd;stroke:none"
       d="m 212.6,298.1 2.8,8.5 -5.6,0 2.8,-8.5 z" /><g
       id="g362"><path
         id="path364"
         style="fill:none;stroke:#000000;stroke-width:0.28299001;stroke-linecap:butt;stroke-linejoin:round;stroke-miterlimit:10;stroke-dasharray:none;stroke-opacity:1"
         d="m 141.7,135.1 -134.6,0 0,28.3 269.3,0 0,-28.3 -134.7,0 z" /></g><g
       id="g366"><text
         id="text368"
         style="font-variant:normal;font-weight:normal;font-size:18px;font-family:'Liberation Sans';-inkscape-font-specification:LiberationSans;writing-mode:lr-tb;fill:#000000;fill-opacity:1;fill-rule:nonzero;stroke:none"
         transform="matrix(1,0,0,-1,105.8,143)"><tspan
           id="tspan370"
           y="0"
           x="0 12.996 23.004 37.998001 47.897999 51.894001 55.889999 65.790001">Compiler</tspan></text>
</g><g
       id="g372"><path
         id="path374"
         style="fill:none;stroke:#000000;stroke-width:0.28299001;stroke-linecap:butt;stroke-linejoin:round;stroke-miterlimit:10;stroke-dasharray:none;stroke-opacity:1"
         d="m 141.7,50.1 -134.6,0 0,28.3 269.3,0 0,-28.3 -134.7,0 z" /></g><g
       id="g376"><text
         id="text378"
         style="font-variant:normal;font-weight:normal;font-size:18px;font-family:'Liberation Sans';-inkscape-font-specification:LiberationSans;writing-mode:lr-tb;fill:#000000;fill-opacity:1;fill-rule:nonzero;stroke:none"
         transform="matrix(1,0,0,-1,117.3,58)"><tspan
           id="tspan380"
           y="0"
           x="0 10.008 13.914 23.922001 32.922001 42.93">Linker</tspan></text>
</g><g
       id="g382"><path
         id="path384"
         style="fill:none;stroke:#000000;stroke-width:0.28299001;stroke-linecap:butt;stroke-linejoin:round;stroke-miterlimit:10;stroke-dasharray:none;stroke-opacity:1"
         d="m 70.9,170.5 0,-34.3" /></g><path
       id="path386"
       style="fill:#000000;fill-opacity:1;fill-rule:evenodd;stroke:none"
       d="m 70.9,128 2.8,8.5 -5.7,0 2.9,-8.5 z" /><g
       id="g388"><path
         id="path390"
         style="fill:none;stroke:#000000;stroke-width:0.28299001;stroke-linecap:butt;stroke-linejoin:round;stroke-miterlimit:10;stroke-dasharray:none;stroke-opacity:1"
         d="m 141.7,170.5 0,-34.3" /></g><path
       id="path392"
       style="fill:#000000;fill-opacity:1;fill-rule:evenodd;stroke:none"
       d="m 141.7,128 2.9,8.5 -5.7,0 2.8,-8.5 z" /><g
       id="g394"><path
         id="path396"
         style="fill:none;stroke:#000000;stroke-width:0.28299001;stroke-linecap:butt;stroke-linejoin:round;stroke-miterlimit:10;stroke-dasharray:none;stroke-opacity:1"
         d="m 212.6,170.5 0,-34.3" /></g><path
       id="path398"
       style="fill:#000000;fill-opacity:1;fill-rule:evenodd;stroke:none"
       d="m 212.6,128 2.8,8.5 -5.6,0 2.8,-8.5 z" /><g
       id="g400"><path
         id="path402"
         style="fill:none;stroke:#000000;stroke-width:0.28299001;stroke-linecap:butt;stroke-linejoin:round;stroke-miterlimit:10;stroke-dasharray:none;stroke-opacity:1"
         d="M 70.9,85.5 107.6,48.7" /></g><path
       id="path404"
       style="fill:#000000;fill-opacity:1;fill-rule:evenodd;stroke:none"
       d="m 113.4,43 -4,8 -4,-4 8,-4 z" /><g
       id="g406"><path
         id="path408"
         style="fill:none;stroke:#000000;stroke-width:0.28299001;stroke-linecap:butt;stroke-linejoin:round;stroke-miterlimit:10;stroke-dasharray:none;stroke-opacity:1"
         d="m 141.7,85.5 0,-34.4" /></g><path
       id="path410"
       style="fill:#000000;fill-opacity:1;fill-rule:evenodd;stroke:none"
       d="m 141.7,43 2.9,8.5 -5.7,0 2.8,-8.5 z" /><g
       id="g412"><path
         id="path414"
         style="fill:none;stroke:#000000;stroke-width:0.28299001;stroke-linecap:butt;stroke-linejoin:round;stroke-miterlimit:10;stroke-dasharray:none;stroke-opacity:1"
         d="M 212.6,85.5 175.8,48.7" /></g><path
       id="path416"
       style="fill:#000000;fill-opacity:1;fill-rule:evenodd;stroke:none"
       d="m 170.1,43 8,4 -4,4 -4,-8 z" /><g
       id="g418"><g
         id="g420" /><g
         id="g426"><g
           style="opacity:0.5"
           id="g428"
           clip-path="url(#clipPath422)"><g
             id="g430" /></g></g></g></g></svg>